# This file uses centimeters as units for non-parametric coordinates.

mtllib Bottom_Hut2.mtl
g default
v 4.796942 -0.010926 -1.558621
v 4.080524 -0.010926 -2.964673
v 2.964673 -0.010926 -4.080522
v 1.558621 -0.010926 -4.796942
v 0.000000 -0.010926 -5.043803
v -1.558621 -0.010926 -4.796942
v -2.964673 -0.010926 -4.080522
v -4.080522 -0.010926 -2.964673
v -4.796941 -0.010926 -1.558621
v -5.043802 -0.010926 0.000000
v -4.796941 -0.010926 1.558621
v -4.080522 -0.010926 2.964672
v -2.964672 -0.010926 4.080521
v -1.558621 -0.010926 4.796941
v -0.000000 -0.010927 5.043801
v 0.726073 5.105209 5.118123
v 2.964672 5.439963 4.080521
v 4.626511 5.051411 2.560229
v 4.796940 -0.010926 1.558620
v 5.043801 -0.010926 0.000000
v 4.561956 -0.010926 -1.482269
v 3.880631 -0.010926 -2.819444
v 2.819443 -0.010926 -3.880631
v 1.482269 -0.010926 -4.561955
v -0.000000 -0.010926 -4.796723
v -1.482269 -0.010926 -4.561955
v -2.819443 -0.010926 -3.880630
v -3.880630 -0.010926 -2.819443
v -4.561953 -0.010926 -1.482268
v -4.796722 -0.010926 -0.000000
v -4.561953 -0.010926 1.482268
v -3.880629 -0.010926 2.819442
v -2.819442 -0.010926 3.880629
v -1.482268 -0.010926 4.561953
v -0.000000 -0.010927 4.796721
v 0.597736 5.105209 4.806803
v 2.819442 5.439963 3.880629
v 4.447336 5.083642 2.412642
v 4.561953 -0.010926 1.482268
v 4.796721 -0.010926 -0.000000
v 4.561956 5.870195 -1.482269
v 3.880631 5.870195 -2.819444
v -0.000000 5.870195 -0.000000
v 2.819443 5.870195 -3.880631
v 1.482269 5.870195 -4.561955
v -0.000000 5.870195 -4.796723
v -1.482269 5.870195 -4.561955
v -2.819443 5.870195 -3.880630
v -3.880630 5.870195 -2.819443
v -4.561953 5.870195 -1.482268
v -4.796722 5.870195 -0.000000
v -4.561953 5.870195 1.482268
v -3.880629 5.870195 2.819442
v -2.819442 5.870195 3.880629
v -1.482268 5.870195 4.561953
v -0.000000 5.870195 4.796721
v 1.482268 5.870195 4.561953
v 2.819442 5.870195 3.880629
v 3.880628 5.870195 2.819442
v 4.561953 5.870195 1.482268
v 4.796721 5.870195 -0.000000
v 4.796943 5.928802 -1.558621
v 4.080524 5.928802 -2.964673
v 2.964673 5.928802 -4.080523
v 1.558621 5.928802 -4.796942
v 0.000000 5.928802 -5.043803
v -1.558621 5.928802 -4.796942
v -2.964673 5.928802 -4.080522
v -4.080522 5.928802 -2.964673
v -4.796941 5.928802 -1.558621
v -5.043802 5.928802 0.000000
v -4.796941 5.928802 1.558621
v -4.080522 5.928802 2.964672
v -2.964672 5.928802 4.080521
v -1.558621 5.928802 4.796940
v -0.000000 5.928802 5.043801
v 1.558620 5.928802 4.796940
v 2.964672 5.928802 4.080521
v 4.080521 5.928802 2.964672
v 4.796940 5.928802 1.558620
v 5.043801 5.928802 0.000000
vt 0.375000 0.312500
vt 0.387500 0.312500
vt 0.387500 0.688440
vt 0.375000 0.688440
vt 0.400000 0.312500
vt 0.400000 0.688440
vt 0.412500 0.312500
vt 0.412500 0.688440
vt 0.425000 0.312500
vt 0.425000 0.688440
vt 0.437500 0.312500
vt 0.437500 0.688440
vt 0.450000 0.312500
vt 0.450000 0.688440
vt 0.462500 0.312500
vt 0.462500 0.688440
vt 0.475000 0.312500
vt 0.475000 0.688440
vt 0.487500 0.312500
vt 0.487500 0.688440
vt 0.500000 0.312500
vt 0.500000 0.688440
vt 0.512500 0.312500
vt 0.512500 0.688440
vt 0.525000 0.312500
vt 0.525000 0.688440
vt 0.537500 0.312500
vt 0.537500 0.688440
vt 0.550000 0.312500
vt 0.550000 0.688440
vt 0.562500 0.312500
vt 0.562500 0.688440
vt 0.575000 0.312500
vt 0.575000 0.688440
vt 0.587500 0.312500
vt 0.587500 0.688440
vt 0.600000 0.312500
vt 0.600000 0.688440
vt 0.612500 0.312500
vt 0.612500 0.688440
vt 0.625000 0.312500
vt 0.625000 0.688440
vt 0.626409 0.064408
vt 0.648603 0.107966
vt 0.500000 0.150000
vt 0.591842 0.029841
vt 0.548284 0.007647
vt 0.500000 -0.000000
vt 0.451716 0.007647
vt 0.408159 0.029841
vt 0.373591 0.064409
vt 0.351397 0.107966
vt 0.343750 0.156250
vt 0.351397 0.204534
vt 0.373591 0.248091
vt 0.408159 0.282659
vt 0.451716 0.304853
vt 0.500000 0.312500
vt 0.548284 0.304853
vt 0.591841 0.282659
vt 0.626409 0.248091
vt 0.648603 0.204534
vt 0.656250 0.156250
vt 0.626409 0.064408
vt 0.648603 0.107966
vt 0.648603 0.107966
vt 0.626409 0.064408
vt 0.591842 0.029841
vt 0.591842 0.029841
vt 0.548284 0.007647
vt 0.548284 0.007647
vt 0.500000 -0.000000
vt 0.500000 -0.000000
vt 0.451716 0.007647
vt 0.451716 0.007647
vt 0.408159 0.029841
vt 0.408159 0.029841
vt 0.373591 0.064409
vt 0.373591 0.064409
vt 0.351397 0.107966
vt 0.351397 0.107966
vt 0.343750 0.156250
vt 0.343750 0.156250
vt 0.351397 0.204534
vt 0.351397 0.204534
vt 0.373591 0.248091
vt 0.373591 0.248091
vt 0.408159 0.282659
vt 0.408159 0.282659
vt 0.451716 0.304853
vt 0.451716 0.304853
vt 0.500000 0.312500
vt 0.500000 0.312500
vt 0.548284 0.304853
vt 0.548284 0.304853
vt 0.591841 0.282659
vt 0.591841 0.282659
vt 0.626409 0.248091
vt 0.626409 0.248091
vt 0.648603 0.204534
vt 0.648603 0.204534
vt 0.656250 0.156250
vt 0.656250 0.156250
vn 0.951057 -0.000000 -0.309016
vn 0.809017 -0.000000 -0.587785
vn 0.809017 -0.000000 -0.587785
vn 0.951057 -0.000000 -0.309016
vn 0.587785 -0.000000 -0.809017
vn 0.587785 -0.000000 -0.809017
vn 0.309017 -0.000000 -0.951056
vn 0.309017 -0.000000 -0.951056
vn -0.000000 0.000000 -1.000000
vn -0.000000 0.000000 -1.000000
vn -0.309017 0.000000 -0.951056
vn -0.309017 0.000000 -0.951056
vn -0.587785 0.000000 -0.809017
vn -0.587785 0.000000 -0.809017
vn -0.809017 0.000000 -0.587785
vn -0.809017 0.000000 -0.587785
vn -0.951057 0.000000 -0.309017
vn -0.951057 0.000000 -0.309017
vn -1.000000 0.000000 0.000000
vn -1.000000 0.000000 0.000000
vn -0.951056 0.000000 0.309017
vn -0.951056 0.000000 0.309017
vn -0.809017 0.000000 0.587785
vn -0.809017 0.000000 0.587785
vn -0.587785 0.000000 0.809017
vn -0.587785 0.000000 0.809017
vn -0.309017 0.000000 0.951056
vn -0.309017 0.000000 0.951056
vn -0.155830 0.000282 0.987784
vn -0.130368 0.012133 0.991391
vn 0.007111 0.041715 0.999104
vn 0.138584 0.012284 0.990274
vn 0.575294 0.004254 0.817936
vn 0.571942 0.002656 0.820290
vn 0.963015 0.065361 0.261400
vn 0.923257 0.066625 0.378362
vn 0.987584 0.000639 0.157091
vn 0.984366 0.018307 0.175183
vn 1.000000 -0.000000 0.000001
vn 1.000000 -0.000000 0.000001
vn 0.000000 -1.000000 -0.000000
vn 0.000000 -1.000000 0.000000
vn 0.000000 -1.000000 0.000000
vn 0.000000 -1.000000 0.000000
vn 0.000000 -1.000000 -0.000000
vn 0.000000 -1.000000 0.000000
vn 0.000000 -1.000000 0.000000
vn 0.000000 -1.000000 0.000000
vn 0.000000 -1.000000 0.000000
vn 0.000000 -1.000000 0.000000
vn 0.000000 -1.000000 0.000000
vn 0.000000 -1.000000 0.000000
vn 0.000000 -1.000000 0.000000
vn 0.000000 -1.000000 0.000000
vn 0.000000 -1.000000 -0.000000
vn 0.000000 -1.000000 0.000000
vn 0.000000 -1.000000 0.000000
vn 0.000000 -1.000000 -0.000000
vn 0.000000 -1.000000 0.000000
vn 0.000000 -1.000000 0.000000
vn 0.000000 -1.000000 0.000000
vn 0.000000 -1.000000 0.000000
vn 0.000000 -1.000000 0.000000
vn 0.000000 -1.000000 0.000000
vn 0.000000 -1.000000 0.000000
vn 0.000000 -1.000000 0.000000
vn 0.000000 -1.000000 0.000000
vn 0.000000 -1.000000 0.000000
vn 0.000000 -1.000000 0.000000
vn 0.000000 -1.000000 0.000000
vn 0.000000 -1.000000 0.000000
vn 0.000000 -1.000000 0.000000
vn 0.000000 -1.000000 0.000000
vn 0.000000 -1.000000 0.000000
vn 0.000000 -1.000000 0.000000
vn 0.000000 -1.000000 0.000000
vn 0.000000 -1.000000 0.000000
vn 0.000000 -1.000000 0.000000
vn 0.000000 -1.000000 0.000000
vn 0.000000 -1.000000 0.000000
vn 0.000000 -1.000000 0.000000
vn 0.000000 -1.000000 0.000000
vn 0.000000 -1.000000 0.000000
vn 0.000000 -1.000000 0.000000
vn 0.000000 -1.000000 0.000000
vn 0.000000 -1.000000 0.000000
vn 0.000000 -1.000000 0.000000
vn 0.000000 -1.000000 0.000000
vn 0.000000 -1.000000 0.000000
vn 0.000000 -1.000000 0.000000
vn 0.000000 -1.000000 0.000000
vn 0.000000 -1.000000 0.000000
vn 0.000000 -1.000000 0.000000
vn 0.000000 -1.000000 0.000000
vn 0.000000 -1.000000 0.000000
vn 0.000000 -1.000000 0.000000
vn 0.000000 -1.000000 0.000000
vn 0.000000 -1.000000 0.000000
vn 0.000000 -1.000000 0.000000
vn 0.000000 -1.000000 0.000000
vn 0.000000 -1.000000 0.000000
vn 0.000000 -1.000000 0.000000
vn 0.000000 -1.000000 0.000000
vn 0.000000 -1.000000 0.000000
vn 0.000000 -1.000000 0.000000
vn 0.000000 -1.000000 0.000000
vn 0.000000 -1.000000 0.000000
vn 0.000000 -1.000000 0.000000
vn 0.000000 -1.000000 0.000000
vn 0.000000 -1.000000 0.000000
vn 0.000000 -1.000000 0.000000
vn 0.000000 -1.000000 0.000000
vn 0.000000 -1.000000 0.000000
vn -0.000000 -1.000000 0.000000
vn -0.000000 -1.000000 0.000000
vn -0.000000 -1.000000 0.000000
vn -0.000000 -1.000000 0.000000
vn 0.967156 -0.123293 -0.222281
vn 0.967156 -0.123293 -0.222281
vn 0.967156 -0.123293 -0.222281
vn 0.967156 -0.123293 -0.222281
vn 0.120345 -0.990641 -0.064402
vn 0.120345 -0.990641 -0.064402
vn 0.120345 -0.990641 -0.064402
vn 0.120345 -0.990641 -0.064402
vn -0.165455 -0.984192 0.063178
vn -0.165455 -0.984192 0.063178
vn -0.165455 -0.984192 0.063178
vn -0.165455 -0.984192 0.063178
vn -0.478741 -0.177006 0.859928
vn -0.478741 -0.177006 0.859928
vn -0.478741 -0.177006 0.859928
vn -0.478741 -0.177006 0.859928
vn 0.000000 -1.000000 0.000000
vn 0.000000 -1.000000 0.000000
vn 0.000000 -1.000000 0.000000
vn 0.000000 -1.000000 0.000000
vn 0.000000 -1.000000 0.000000
vn 0.000000 -1.000000 0.000000
vn 0.000000 -1.000000 0.000000
vn 0.000000 -1.000000 0.000000
vn -0.809017 0.000000 0.587785
vn -0.951057 0.000000 0.309016
vn -0.951057 0.000000 0.309016
vn -0.809017 0.000000 0.587785
vn -0.587785 0.000000 0.809017
vn -0.587785 0.000000 0.809017
vn -0.309017 0.000000 0.951057
vn -0.309017 0.000000 0.951057
vn 0.000000 0.000000 1.000000
vn 0.000000 0.000000 1.000000
vn 0.309017 0.000000 0.951056
vn 0.309017 0.000000 0.951056
vn 0.587785 0.000000 0.809017
vn 0.587785 0.000000 0.809017
vn 0.809017 0.000000 0.587785
vn 0.809017 0.000000 0.587785
vn 0.951057 0.000000 0.309017
vn 0.951057 0.000000 0.309017
vn 1.000000 0.000000 0.000000
vn 1.000000 0.000000 0.000000
vn 0.951056 0.000000 -0.309017
vn 0.951056 0.000000 -0.309017
vn 0.809017 0.000000 -0.587785
vn 0.809017 0.000000 -0.587785
vn 0.587785 0.000000 -0.809017
vn 0.587785 0.000000 -0.809017
vn 0.309017 0.000000 -0.951057
vn 0.309017 0.000000 -0.951057
vn 0.155739 -0.000129 -0.987798
vn 0.118743 -0.006981 -0.992900
vn -0.067672 -0.016865 -0.997565
vn -0.182398 0.028869 -0.982801
vn -0.563909 0.023080 -0.825515
vn -0.561578 0.024844 -0.827051
vn -0.972074 -0.073694 -0.222803
vn -0.934413 -0.077358 -0.347691
vn -0.987653 -0.000627 -0.156659
vn -0.986345 -0.019787 -0.163499
vn -1.000000 0.000000 -0.000001
vn -1.000000 0.000000 -0.000001
s 1
g polySurface1 pCylinder1
usemtl initialShadingGroup
f 1/1/1 2/2/2 63/3/3 62/4/4
f 2/2/2 3/5/5 64/6/6 63/3/3
f 3/5/5 4/7/7 65/8/8 64/6/6
f 4/7/7 5/9/9 66/10/10 65/8/8
f 5/9/9 6/11/11 67/12/12 66/10/10
f 6/11/11 7/13/13 68/14/14 67/12/12
f 7/13/13 8/15/15 69/16/16 68/14/14
f 8/15/15 9/17/17 70/18/18 69/16/16
f 9/17/17 10/19/19 71/20/20 70/18/18
f 10/19/19 11/21/21 72/22/22 71/20/20
f 11/21/21 12/23/23 73/24/24 72/22/22
f 12/23/23 13/25/25 74/26/26 73/24/24
f 13/25/25 14/27/27 75/28/28 74/26/26
f 14/27/27 15/29/29 76/30/30 75/28/28
f 15/29/29 16/31/31 77/32/32 76/30/30
f 16/31/31 17/33/33 78/34/34 77/32/32
f 17/33/33 18/35/35 79/36/36 78/34/34
f 18/35/35 19/37/37 80/38/38 79/36/36
f 19/37/37 20/39/39 81/40/40 80/38/38
f 20/39/39 1/41/1 62/42/4 81/40/40
s 2
f 42/43/41 41/44/42 43/45/43
f 44/46/44 42/43/41 43/45/43
f 45/47/45 44/46/44 43/45/43
f 46/48/46 45/47/45 43/45/43
f 47/49/47 46/48/46 43/45/43
f 48/50/48 47/49/47 43/45/43
f 49/51/49 48/50/48 43/45/43
f 50/52/50 49/51/49 43/45/43
f 51/53/51 50/52/50 43/45/43
f 52/54/52 51/53/51 43/45/43
f 53/55/53 52/54/52 43/45/43
f 54/56/54 53/55/53 43/45/43
f 55/57/55 54/56/54 43/45/43
f 56/58/56 55/57/55 43/45/43
f 57/59/57 56/58/56 43/45/43
f 58/60/58 57/59/57 43/45/43
f 59/61/59 58/60/58 43/45/43
f 60/62/60 59/61/59 43/45/43
f 61/63/61 60/62/60 43/45/43
f 41/44/42 61/63/61 43/45/43
s off
f 2/64/62 1/65/63 21/66/64 22/67/65
f 3/68/66 2/64/67 22/67/68 23/69/69
f 4/70/70 3/68/71 23/69/72 24/71/73
f 5/72/74 4/70/75 24/71/76 25/73/77
f 6/74/78 5/72/79 25/73/80 26/75/81
f 7/76/82 6/74/83 26/75/84 27/77/85
f 8/78/86 7/76/87 27/77/88 28/79/89
f 9/80/90 8/78/91 28/79/92 29/81/93
f 10/82/94 9/80/95 29/81/96 30/83/97
f 11/84/98 10/82/99 30/83/100 31/85/101
f 12/86/102 11/84/103 31/85/104 32/87/105
f 13/88/106 12/86/107 32/87/108 33/89/109
f 14/90/110 13/88/111 33/89/112 34/91/113
f 15/92/114 14/90/115 34/91/116 35/93/117
f 16/94/118 15/92/119 35/93/120 36/95/121
f 17/96/122 16/94/123 36/95/124 37/97/125
f 18/98/126 17/96/127 37/97/128 38/99/129
f 19/100/130 18/98/131 38/99/132 39/101/133
f 20/102/134 19/100/135 39/101/136 40/103/137
f 1/65/138 20/102/139 40/103/140 21/66/141
s 3
f 22/67/142 21/66/143 41/44/144 42/43/145
f 23/69/146 22/67/142 42/43/145 44/46/147
f 24/71/148 23/69/146 44/46/147 45/47/149
f 25/73/150 24/71/148 45/47/149 46/48/151
f 26/75/152 25/73/150 46/48/151 47/49/153
f 27/77/154 26/75/152 47/49/153 48/50/155
f 28/79/156 27/77/154 48/50/155 49/51/157
f 29/81/158 28/79/156 49/51/157 50/52/159
f 30/83/160 29/81/158 50/52/159 51/53/161
f 31/85/162 30/83/160 51/53/161 52/54/163
f 32/87/164 31/85/162 52/54/163 53/55/165
f 33/89/166 32/87/164 53/55/165 54/56/167
f 34/91/168 33/89/166 54/56/167 55/57/169
f 35/93/170 34/91/168 55/57/169 56/58/171
f 36/95/172 35/93/170 56/58/171 57/59/173
f 37/97/174 36/95/172 57/59/173 58/60/175
f 38/99/176 37/97/174 58/60/175 59/61/177
f 39/101/178 38/99/176 59/61/177 60/62/179
f 40/103/180 39/101/178 60/62/179 61/63/181
f 21/66/143 40/103/180 61/63/181 41/44/144
